# xmcd CD database file
#
# Track frame offsets:
#	150
#	22142
#	41276
#	57678
#	81602
#	107728
#	121966
#	142326
#	160043
#	179323
#	204706
#	217658
#	236605
#	247099
#	269258
#	285595
#	299879
#	325339
#
# Disc length: 4674 seconds
#
# Revision: 3
# Processed by: cddbd v1.5.2PL0 Copyright (c) Steve Scherf et al.
# Submitted via: CDex 1.70beta2
#
DISCID=22124012
DTITLE=Various Artist - In The Wee Small Hours
DYEAR=2003
DGENRE=Jazz
TTITLE0=Gerry Mulligan - Night Lights
TTITLE1=Stan Getz and Joao Gilberto ft Astrud Gilberto - Corcovado
TTITLE2=Coleman Hawkins - I Wished On The Moon
TTITLE3=John Coltrane and Johnny Hartman - They Say It's Wonderful
TTITLE4=Coleman Hawkins and Ben Webster - It Never Entered My Mind
TTITLE5=Chet Baker - Travellin' Light
TTITLE6=Ben Webster - Makin' Whoopee
TTITLE7=Joe Williams and Count Basie - Nevertheless
TTITLE8=John Coltrane - Say It Over And Over Again
TTITLE9=McCoy Tyner - Satin Doll
TTITLE10=Chet Baker - When Your Lover Has Gone
TTITLE11=Red Garland - The Very Thought Of You
TTITLE12=Oscar Peterson - Everytime We Say Goodbye
TTITLE13=John Colltrane and Johnny Hartman - My One and Only Love
TTITLE14=Stan Getz - Detour Ahead
TTITLE15=John Pizzarelli - This Will Make You Laugh
TTITLE16=Red Garland Trio and Eddie "Lockjaw" Davis - We'll Be Together Again
TTITLE17=Gerry Mulligan - In The Wee Small Hours Of The Morning
EXTD=YEAR: 2003
EXTT0=
EXTT1=
EXTT2=
EXTT3=
EXTT4=
EXTT5=
EXTT6=
EXTT7=
EXTT8=
EXTT9=
EXTT10=
EXTT11=
EXTT12=
EXTT13=
EXTT14=
EXTT15=
EXTT16=
EXTT17=
PLAYORDER=
